<mxfile host="app.diagrams.net" modified="2020-11-14T08:40:36.894Z" agent="5.0 (Windows NT 10.0; Win64; x64) AppleWebKit/537.36 (KHTML, like Gecko) Chrome/86.0.4240.198 Safari/537.36" etag="emPP6ly-F-QYbeDQhxpm" version="13.9.8" type="github">
  <diagram id="C5RBs43oDa-KdzZeNtuy" name="Page-1">
    <mxGraphModel dx="1550" dy="868" grid="1" gridSize="10" guides="1" tooltips="1" connect="1" arrows="1" fold="1" page="1" pageScale="1" pageWidth="1169" pageHeight="827" math="0" shadow="0">
      <root>
        <mxCell id="WIyWlLk6GJQsqaUBKTNV-0" />
        <mxCell id="WIyWlLk6GJQsqaUBKTNV-1" parent="WIyWlLk6GJQsqaUBKTNV-0" />
        <mxCell id="OLkHr5eK3qQuWQC9cHcR-3" value="" style="shape=image;html=1;verticalAlign=top;verticalLabelPosition=bottom;labelBackgroundColor=#ffffff;imageAspect=0;aspect=fixed;image=https://cdn4.iconfinder.com/data/icons/logos-brands-5/24/postman-128.png" vertex="1" parent="WIyWlLk6GJQsqaUBKTNV-1">
          <mxGeometry x="70" y="270" width="60" height="60" as="geometry" />
        </mxCell>
        <mxCell id="OLkHr5eK3qQuWQC9cHcR-4" value="" style="outlineConnect=0;dashed=0;verticalLabelPosition=bottom;verticalAlign=top;align=center;html=1;shape=mxgraph.aws3.api_gateway;fillColor=#D9A741;gradientColor=none;" vertex="1" parent="WIyWlLk6GJQsqaUBKTNV-1">
          <mxGeometry x="210" y="253.5" width="76.5" height="93" as="geometry" />
        </mxCell>
        <mxCell id="OLkHr5eK3qQuWQC9cHcR-5" value="" style="endArrow=classic;html=1;" edge="1" parent="WIyWlLk6GJQsqaUBKTNV-1">
          <mxGeometry relative="1" as="geometry">
            <mxPoint x="130" y="301.5" as="sourcePoint" />
            <mxPoint x="230" y="301.5" as="targetPoint" />
          </mxGeometry>
        </mxCell>
        <mxCell id="OLkHr5eK3qQuWQC9cHcR-10" value="" style="outlineConnect=0;dashed=0;verticalLabelPosition=bottom;verticalAlign=top;align=center;html=1;shape=mxgraph.aws3.classic_load_balancer;fillColor=#F58534;gradientColor=none;" vertex="1" parent="WIyWlLk6GJQsqaUBKTNV-1">
          <mxGeometry x="334" y="262" width="80" height="76" as="geometry" />
        </mxCell>
        <mxCell id="OLkHr5eK3qQuWQC9cHcR-11" value="" style="endArrow=classic;html=1;entryX=0;entryY=0.5;entryDx=0;entryDy=0;entryPerimeter=0;" edge="1" parent="WIyWlLk6GJQsqaUBKTNV-1" target="OLkHr5eK3qQuWQC9cHcR-10">
          <mxGeometry relative="1" as="geometry">
            <mxPoint x="260" y="299.5" as="sourcePoint" />
            <mxPoint x="330" y="300" as="targetPoint" />
          </mxGeometry>
        </mxCell>
        <mxCell id="OLkHr5eK3qQuWQC9cHcR-13" value="" style="outlineConnect=0;dashed=0;verticalLabelPosition=bottom;verticalAlign=top;align=center;html=1;shape=mxgraph.aws3.auto_scaling;fillColor=#F58534;gradientColor=none;" vertex="1" parent="WIyWlLk6GJQsqaUBKTNV-1">
          <mxGeometry x="496" y="262" width="79.5" height="76.5" as="geometry" />
        </mxCell>
        <mxCell id="OLkHr5eK3qQuWQC9cHcR-14" value="" style="endArrow=classic;html=1;" edge="1" parent="WIyWlLk6GJQsqaUBKTNV-1">
          <mxGeometry relative="1" as="geometry">
            <mxPoint x="416" y="299.5" as="sourcePoint" />
            <mxPoint x="496" y="299.5" as="targetPoint" />
            <Array as="points">
              <mxPoint x="476" y="299.5" />
            </Array>
          </mxGeometry>
        </mxCell>
        <mxCell id="OLkHr5eK3qQuWQC9cHcR-18" value="" style="outlineConnect=0;dashed=0;verticalLabelPosition=bottom;verticalAlign=top;align=center;html=1;shape=mxgraph.aws3.ec2;fillColor=#F58534;gradientColor=none;" vertex="1" parent="WIyWlLk6GJQsqaUBKTNV-1">
          <mxGeometry x="620" y="253.5" width="76.5" height="93" as="geometry" />
        </mxCell>
        <mxCell id="OLkHr5eK3qQuWQC9cHcR-19" value="" style="outlineConnect=0;dashed=0;verticalLabelPosition=bottom;verticalAlign=top;align=center;html=1;shape=mxgraph.aws3.rds;fillColor=#2E73B8;gradientColor=none;" vertex="1" parent="WIyWlLk6GJQsqaUBKTNV-1">
          <mxGeometry x="624.5" y="100" width="72" height="81" as="geometry" />
        </mxCell>
        <mxCell id="OLkHr5eK3qQuWQC9cHcR-20" value="" style="endArrow=classic;html=1;" edge="1" parent="WIyWlLk6GJQsqaUBKTNV-1">
          <mxGeometry relative="1" as="geometry">
            <mxPoint x="660" y="263.5" as="sourcePoint" />
            <mxPoint x="660" y="181" as="targetPoint" />
          </mxGeometry>
        </mxCell>
        <mxCell id="OLkHr5eK3qQuWQC9cHcR-21" value="MySQL" style="edgeLabel;resizable=0;html=1;align=center;verticalAlign=middle;" connectable="0" vertex="1" parent="OLkHr5eK3qQuWQC9cHcR-20">
          <mxGeometry relative="1" as="geometry" />
        </mxCell>
        <mxCell id="OLkHr5eK3qQuWQC9cHcR-23" value="" style="endArrow=classic;html=1;" edge="1" parent="WIyWlLk6GJQsqaUBKTNV-1">
          <mxGeometry relative="1" as="geometry">
            <mxPoint x="570.25" y="299.5" as="sourcePoint" />
            <mxPoint x="624.5" y="299.5" as="targetPoint" />
          </mxGeometry>
        </mxCell>
        <mxCell id="OLkHr5eK3qQuWQC9cHcR-26" value="&lt;h2 id=&quot;architecture&quot; style=&quot;box-sizing: border-box ; margin: 1.8em 0px ; line-height: 1.33 ; color: rgba(0 , 0 , 0 , 0.75) ; font-family: &amp;#34;lato&amp;#34; , &amp;#34;helvetica neue&amp;#34; , &amp;#34;helvetica&amp;#34; , sans-serif ; background-color: rgb(243 , 243 , 243)&quot;&gt;Architecture Diagram&lt;/h2&gt;" style="text;html=1;align=center;verticalAlign=middle;resizable=0;points=[];autosize=1;" vertex="1" parent="WIyWlLk6GJQsqaUBKTNV-1">
          <mxGeometry x="120" y="40" width="200" height="90" as="geometry" />
        </mxCell>
        <mxCell id="OLkHr5eK3qQuWQC9cHcR-28" value="Rest Call-Postman&amp;nbsp;" style="text;html=1;strokeColor=none;fillColor=none;align=center;verticalAlign=middle;whiteSpace=wrap;rounded=0;" vertex="1" parent="WIyWlLk6GJQsqaUBKTNV-1">
          <mxGeometry x="47" y="332" width="133" height="20" as="geometry" />
        </mxCell>
      </root>
    </mxGraphModel>
  </diagram>
</mxfile>
